Coordinates
version=1
nRows=8
nColumns=34
inDegrees=yes

Units are S.I. units (second, meters, Newtons, ...)
If the header above contains a line with 'inDegrees', this indicates whether rotational values are in degrees (yes) or radians (no).

endheader
time	pelvis_tilt	pelvis_list	pelvis_rotation	pelvis_tx	pelvis_ty	pelvis_tz	hip_flexion_r	hip_adduction_r	hip_rotation_r	knee_angle_r	ankle_angle_r	subtalar_angle_r	mtp_angle_r	hip_flexion_l	hip_adduction_l	hip_rotation_l	knee_angle_l	ankle_angle_l	subtalar_angle_l	mtp_angle_l	lumbar_extension	lumbar_bending	lumbar_rotation	arm_flex_r	arm_add_r	arm_rot_r	elbow_flex_r	pro_sup_r	arm_flex_l	arm_add_l	arm_rot_l	elbow_flex_l	pro_sup_l
      0.00000000	     -1.42910815	      1.05457586	     -3.62229157	      1.80309057	      0.88133690	     -0.17285593	     -1.06554349	     -8.46449769	     -0.50430711	      4.01850836	      2.73294423	    -11.88689850	      0.00000000	     -1.98894730	     -3.02435771	     -5.64072210	      5.10094415	      7.59745161	     -5.21912626	      0.00000000	     -9.30876847	      0.86469896	     -3.13662888	     14.82148539	     -6.79728969	     40.37513811	     84.85624882	     97.83640388	      5.53913215	     -3.70986688	     20.34949185	     86.30176054	    100.24717897
      0.01666670	     -3.19690621	      1.36997654	     -3.66844349	      1.80440575	      0.87983076	     -0.17254147	      1.20521310	     -8.57610577	      1.30282480	      4.47232928	      6.14259281	     -9.81970184	      0.00000000	      0.89951805	     -2.53968674	     -5.42267578	      5.59951918	      8.47876855	     -4.01316325	      0.00000000	     -6.77505186	      1.08196210	     -2.89792153	     13.12807525	     -6.62179223	     37.72039618	     84.61623873	     97.27350957	      4.54162116	     -3.30408286	     17.50475513	     86.37293243	     99.13360628
      0.03333330	     -3.29813957	      2.05779222	     -3.91162458	      1.80420457	      0.87991254	     -0.17109843	      1.08879701	     -9.46649644	      1.32931987	      3.70827382	      6.41697441	     -9.34236111	      0.00000000	      0.64592763	     -1.97539171	     -5.87940885	      4.72473617	      7.95268989	     -3.58977361	      0.00000000	     -6.58023705	      0.20912986	     -2.43691149	     12.86488592	     -6.64343355	     37.07711683	     84.25007281	     97.12318688	      4.98933846	     -3.58486586	     16.03225052	     85.93762637	     98.26989290
      0.05000000	     -2.72023586	      2.51572739	     -3.91165373	      1.80396624	      0.88149019	     -0.16990552	      0.13009343	    -10.07051134	      1.58003364	      3.02390543	      6.64827797	     -9.19636084	      0.00000000	     -0.60565898	     -1.42960119	     -5.54120678	      3.62902331	      7.42640645	     -3.94526219	      0.00000000	     -7.24810926	     -0.47478200	     -2.16285961	     12.70397525	     -6.75602670	     36.98556252	     84.17296820	     97.07549579	      5.64629564	     -3.83176214	     15.53228488	     85.51252944	     97.62394691
      0.06666670	     -2.82143123	      2.62692259	     -3.83599087	      1.80371646	      0.88182606	     -0.16916397	      0.11283064	    -10.10596922	      1.71198254	      2.71180737	      6.76801793	     -9.21032651	      0.00000000	     -0.62348308	     -1.34818989	     -5.46464854	      3.31342649	      7.51822779	     -4.00341433	      0.00000000	     -7.40130982	     -0.51829158	     -2.17994553	     12.63564875	     -6.66040286	     37.09136003	     84.22491960	     97.07870185	      5.68878234	     -3.80737693	     15.61475134	     85.48408086	     97.60202790
      0.08333330	     -1.79957143	      2.77181830	     -3.81246382	      1.80397149	      0.88355800	     -0.16872317	     -1.45485755	    -10.22515959	      2.25548567	      1.91302241	      6.54969292	     -9.95639276	      0.00000000	     -2.28693649	     -1.06679750	     -4.60304774	      2.26204278	      6.67383554	     -4.93869002	      0.00000000	     -8.48680626	     -0.78671785	     -2.07559232	     13.09335903	     -6.85417205	     38.30096230	     85.08991062	     97.08157458	      6.44809199	     -4.24592706	     17.88817812	     85.19933654	     97.38612903
      0.10000000	     -1.81415868	      2.80064191	     -3.71525941	      1.80403313	      0.88422862	     -0.16879556	     -1.53072857	    -10.19059890	      2.39868264	      1.75997974	      6.61162557	     -9.98505528	      0.00000000	     -2.27377189	     -1.05916358	     -4.51610273	      2.20909062	      6.67153874	     -4.97039323	      0.00000000	     -8.53767785	     -0.85847374	     -2.07112956	     13.16428394	     -6.59820494	     38.40510496	     85.21349271	     97.07883481	      6.33219410	     -3.97435188	     18.19024490	     85.18158634	     97.38373106
      0.11666670	     -1.28423648	      2.82588867	     -3.65290292	      1.80402816	      0.88579988	     -0.16893902	     -2.37725337	    -10.19592771	      2.84611180	      1.27139624	      6.01883967	    -11.03951508	      0.00000000	     -3.02127092	     -0.97910890	     -3.78843113	      1.84829936	      5.99108606	     -5.89655737	      0.00000000	     -9.23137906	     -0.88094708	     -1.97085089	     13.52809660	     -6.89317196	     39.44855461	     85.99460592	     96.97712889	      7.20259684	     -4.53521143	     20.53779255	     84.78344134	     97.26235262
